<svg version="1.2" xmlns="http://www.w3.org/2000/svg" viewBox="0 0 400 400" width="64" height="64">
	<title>cloudflare-logo-svg-svg</title>
	<style>
		.s0 { fill: #fdd7a0 } 
		.s1 { fill: #ffffff } 
		.s2 { fill: #f38020 } 
		.s3 { fill: #faae40 } 
	</style>
	<rect id="Shape 2" class="s0" width="400" height="400" rx="58"></rect>
	<path id="Layer" class="s1" d="m342.1 276.2l-225.8-0.1v-89l175.5-1.3 7.4 3.2 42.9 24.6z"/>
	<path id="Layer" class="s2" d="m262.3 274.1c-0.4 1.3-1.6 2.2-2.9 2.2h-227.2c-1.2 0-2.2-0.9-2.4-2.1-0.3-2.5-0.5-5-0.5-7.5 0-28.1 22.3-50.9 50.2-51.7-1-4-1.3-8.3-0.9-12.7 1.7-17.1 15.4-30.8 32.5-32.5 9.6-0.9 18.5 1.9 25.5 7.1 10.8-31.9 41-54.9 76.6-54.9 38.6 0 70.9 27 78.9 63.2 0.2 0.8 0.1 1.6-0.2 2.4l-7.1 18.5c-5.6 14.6-21.6 26.5-36.3 27.2l-124.2 1.6c-1.3 0.1-2.5 1-2.9 2.2-0.2 0.8-0.1 1.6 0.3 2.2 0.4 0.6 1.1 1 1.9 1l123.1 1.6c6.5 0.3 11.9 2.9 15.1 7.4 3.5 4.9 4.3 11.5 2.2 18.7z"/>
	<path id="Layer" class="s3" d="m370.5 256.1c0 6.3-0.9 12.4-2.5 18.2-0.3 1.1-1.3 1.8-2.4 1.8h-93.8c-1.1 0-1.8-1-1.4-2l2-5.1c5.6-14.6 21.5-26.5 36.3-27.2l27.3-1.6c1.3-0.1 2.5-1 2.9-2.2 0.2-0.7 0.1-1.6-0.3-2.2-0.4-0.6-1.1-1-1.9-1l-26.2-1.6c-6.5-0.3-11.9-2.9-15.1-7.4-3.5-4.9-4.3-11.5-2.2-18.7l4.8-16.7c0.3-0.8 1-1.4 1.8-1.4 1.1-0.1 2.3-0.1 3.4-0.1 37.2 0 67.3 30.1 67.3 67.2z"/>
</svg>