<svg version="1.2" xmlns="http://www.w3.org/2000/svg" viewBox="0 0 345 345" width="64" height="64">
	<title>cpp-logo-svg</title>
	<style>
		.s0 { fill: #337ab7 } 
		.s1 { fill: #00599c } 
		.s2 { fill: #004482 } 
		.s3 { fill: #659ad2 } 
		.s4 { fill: #ffffff } 
	</style>
	<rect id="Shape 2" class="s0" width="345" height="345" rx="16"></rect>
	<g id="Folder 1">
		<path id="Layer" class="s1" d="m172 172.7l132.5-76.6c2.2 3.7 3.5 7.9 3.5 11.6v129.9c0 3.7-1.3 7.9-3.5 11.6z"/>
		<path id="Layer" class="s2" d="m160.2 322.9l-112.4-64.9c-3.3-1.9-6.2-5.1-8.3-8.8l132.5-76.5 132.5 76.5c-2.1 3.7-5 6.9-8.3 8.8l-112.4 64.9c-6.5 3.7-17.1 3.7-23.6 0z"/>
		<path id="Layer" class="s3" d="m172 172.7l-132.5 76.5c-2.2-3.7-3.5-7.9-3.5-11.6v-129.9c0-7.4 5.3-16.6 11.8-20.4l112.4-64.9c6.5-3.7 17.1-3.7 23.6 0l112.4 64.9c3.3 1.9 6.2 5.1 8.3 8.8z"/>
		<g id="Layer">
			<path id="Layer" class="s4" d="m172 263.3c-50 0-90.7-40.6-90.7-90.6 0-50 40.7-90.7 90.7-90.7 32.3 0 62.3 17.4 78.5 45.3l-39.2 22.7c-8.1-14-23.2-22.7-39.3-22.7-25 0-45.3 20.4-45.3 45.4 0 25 20.3 45.3 45.3 45.3 16.1 0 31.2-8.7 39.3-22.7l39.2 22.7c-16.2 28-46.2 45.3-78.5 45.3z"/>
		</g>
		<g id="Layer">
			<path id="Layer" class="s4" d="m262.7 177.7h-10.1v10.1h-10.1v-10.1h-10.1v-10.1h10.1v-10h10.1v10h10.1z"/>
		</g>
		<g id="Layer">
			<path id="Layer" class="s4" d="m300.4 177.7h-10v10.1h-10.1v-10.1h-10.1v-10.1h10.1v-10h10.1v10h10z"/>
		</g>
	</g>
</svg>