<svg version="1.2" xmlns="http://www.w3.org/2000/svg" viewBox="0 0 345 345" width="64" height="64">
  <style>tspan{white-space:pre}.a{fill:#6d3db4}.b{fill:#39008c}.c{fill:#2c006b}.d{fill:#a179db}.e{fill:#fff}.f{font-size: 50px;fill: #ffffff;font-weight: 700;font-family: "DejaVuSans-Bold", "DejaVu Sans"}</style>
  <path class="a" d="m0 0h345v345h-345z"/>
  <path class="b" d="m172 172l131.6-76c2.1 3.6 3.4 7.8 3.4 11.5v128.9c0 3.7-1.3 7.8-3.4 11.5z"/>
  <path class="c" d="m160.4 321.1l-111.8-64.4c-3.1-1.9-6-5.2-8.2-8.8l131.6-75.9 131.6 75.9c-2.2 3.6-5.1 6.9-8.3 8.8l-111.7 64.4c-6.3 3.7-16.9 3.7-23.3 0z"/>
  <path class="d" d="m172 172l-131.6 75.9c-2.1-3.7-3.4-7.8-3.4-11.5v-128.9c0-7.5 5.3-16.5 11.6-20.2l111.7-64.5c6.4-3.8 17-3.8 23.3 0l111.7 64.5c3.2 1.8 6.1 5 8.3 8.7z"/>
  <path class="e" d="m172 262c-49.6 0-90-40.5-90-90 0-49.7 40.4-90 90-90 32 0 61.9 17.2 77.9 44.9l-38.9 22.6c-8-13.9-22.9-22.5-39-22.5-24.8 0-45 20.2-45 45 0 24.8 20.2 45 45 45 16.1 0 31-8.7 39-22.5l38.9 22.5c-16 27.7-45.9 45-77.9 45z"/>
  <text style="transform:matrix(.882,0,0,.882,228.471,187.667)" >
    <tspan x="0" y="0" class="f">#</tspan>
  </text>
</svg>
