<svg version="1.2" xmlns="http://www.w3.org/2000/svg" viewBox="0 0 500 500" width="64" height="64">
	<title>css-logo-svg</title>
	<style>
		.s0 { fill: #377cfb } 
		.s1 { fill: #264de4 } 
		.s2 { fill: #2965f1 } 
		.s3 { fill: #ebebeb } 
		.s4 { fill: #ffffff } 
	</style>
	<rect id="Shape 1" class="s0" width="500" height="500" rx="72"></rect>
	<path id="Layer" class="s1" d="m430.7 44.6l-33 370.2-148.6 41.2-148.1-41.1-33-370.3z"/>
	<path id="Layer" class="s2" d="m249.4 424.5v-349.6h148.2l-28.2 316.3z"/>
	<path id="Layer" class="s3" d="m249.4 212.2v45.4h-101.7l-4-45.4z"/>
	<path id="Layer" class="s3" d="m249.4 165.7h-109.8l-4.1-45.4h113.7 0.2z"/>
	<path id="Layer" class="s3" d="m249.2 377.5l-93.1-25.9-6.3-71.3h21 24.6l3.2 36.3 50.6 13.6h0.2v47.2z"/>
	<path id="Layer" class="s4" d="m249.2 257.6v-45.4h59.9l4.1-46.5h-64v-45.4h113.8l-8.2 91.9-1.1 12.2-10.7 119.6-0.7 7.6-93.1 25.8v-47.2l50.7-13.7 5.2-58.9z"/>
</svg>