<svg version="1.2" xmlns="http://www.w3.org/2000/svg" viewBox="0 0 600 600" width="600" height="600">
	<title>Java_programming_language_logo-svg</title>
	<style>
		.s0 { fill: #5382a1 } 
		.s1 { fill: #f8981d } 
	</style>
	<path id="Layer" class="s0" d="m433.1 456.9h-2v-1.1h5.5v1.1h-2.1v5.7h-1.4zm10.9 0.3l-2 5.4h-0.9l-2-5.4h-0.1v5.4h-1.3v-6.8h2l1.8 4.8 1.9-4.8h2v6.8h-1.4c0 0 0-5.4 0-5.4z"/>
	<path id="Layer" class="s0" d="m358 335.1c-11.9-4.7-20.4-10-20.4-10-32.4 6.1-47.4 6.6-76.8 3.3-24.3-2.8-10.1-11.1-10.1-11.1-57.1 16 34.7 48.9 107.3 17.8z"/>
	<path id="Layer" class="s0" d="m364.6 295.5c-9.3-3.3-15.3-9.3-15.3-9.3-42.9 8.3-67.7 8-99.1 4.8-24.3-2.5-8.4-14.3-8.4-14.3-62.8 20.9 35 44.5 122.8 18.8z"/>
	<path id="Layer" class="s1" d="m383 106.2c-80.9 46.9-66 60.5-46.5 87.9 20.9 29.4-24.6 52.8-24.6 52.8 0 0 22.6-18.5 4.7-39.1-60.6-69.9 66.4-101.6 66.4-101.6z"/>
	<path id="Layer" class="s0" d="m412.7 347.4c0 0 10.5 8.6-11.6 15.3-41.9 12.7-174.5 16.5-211.3 0.5-13.2-5.8 11.6-13.7 19.4-15.4 8.2-1.8 12.8-1.5 12.8-1.5-14.7-10.3-95.1 20.4-40.8 29.2 148 24 269.9-10.8 231.5-28.1z"/>
	<path id="Layer" class="s0" d="m257.5 234.6c0 0-67.4 16-23.9 21.8 18.4 2.5 55.1 2 89.2-0.9 27.9-2.4 55.9-7.4 55.9-7.4 0 0-9.8 4.2-16.9 9.1-68.5 18-200.8 9.6-162.7-8.8 32.2-15.5 58.4-13.8 58.4-13.8z"/>
	<path id="Layer" class="s0" d="m377.1 304.1c92.9-24.5 58.8-86.2 14.3-70.6-3.9 1.4-5.9 4.6-5.9 4.6 0 0 2.4-1 7.9-2.1 22.5-4.7 54.7 30.1-14.9 66.2-0.4 0.9-1.4 1.9-1.4 1.9z"/>
	<path id="Layer" class="s1" d="m336.5 30.4c0 0 38.5 38.6-36.6 97.9-60.2 47.5-13.7 74.7 0 105.6-35.2-31.7-61-59.6-43.6-85.6 25.4-38.1 95.7-56.6 80.2-117.9z"/>
	<path id="Layer" class="s0" d="m264.3 400.2c66.9 4.3 169.5-2.3 171.9-33.9 0 0-4.7 11.9-55.2 21.5-57.1 10.7-127.4 9.4-169.1 2.6 0 0 8.5 7 52.4 9.8z"/>
	<path id="Layer" fill-rule="evenodd" class="s0" d="m257.1 540.7l-1.3-9.2c-7.5 6.4-15.5 10.9-26.3 10.9-16.7 0-25.6-8.6-25.6-23.6 0-17.4 13.5-29 43.4-29h6.1v-7.6c0-10.3-5.3-15.2-17.6-15.2-8.9 0-17.9 2.4-24.9 4.9l-2.5-10.7c8.8-4 19.7-7 32.2-7 21.3 0 30.2 10.2 30.2 25.7v60.8c0 0-13.7 0-13.7 0zm-3.7-39.8h-7.3c-19.8 0-24.8 6.5-24.8 15.4 0 8.2 4.6 13.3 13.2 13.3 5.9 0 12.6-3.1 18.9-8.6 0 0 0-20.1 0-20.1z"/>
	<path id="Layer" class="s0" d="m328.8 540.7h-21.7l-26.1-85h19l16.2 52.2 3.6 15.7c8.2-22.7 14-45.7 16.9-67.9h18.4c-5 28-13.8 58.7-26.3 85z"/>
	<path id="Layer" fill-rule="evenodd" class="s0" d="m415.8 540.7l-1.4-9.2c-7.5 6.4-15.5 10.9-26.3 10.9-16.7 0-25.5-8.6-25.5-23.6 0-17.4 13.4-29 43.3-29h6.1v-7.6c0-10.3-5.3-15.2-17.5-15.2-8.9 0-18 2.4-24.9 4.9l-2.6-10.7c8.9-4 19.8-7 32.2-7 21.4 0 30.2 10.2 30.2 25.7v60.8c0 0-13.6 0-13.6 0zm-3.8-39.8h-7.3c-19.8 0-24.8 6.5-24.8 15.4 0 8.2 4.7 13.3 13.2 13.3 6 0 12.6-3.1 18.9-8.6z"/>
	<path id="Layer" class="s0" d="m184.8 555.1c-4.9 7.2-12.9 13-21.7 16.2l-8.6-10.1c6.7-3.4 12.4-9 15.1-14.1 2.3-4.6 3.2-10.5 3.2-24.6v-97h18.5v95.7c0 18.8-1.5 26.5-6.5 33.9z"/>
</svg>