<svg version="1.2" xmlns="http://www.w3.org/2000/svg" viewBox="0 0 448 448" width="64" height="64">
	<title>js-logo-svg</title>
	<style>
		.s0 { fill: #f0db4f } 
		.s1 { fill: #323330 } 
	</style>
	<rect id="Shape 1" class="s0" width="448" height="448" rx="65"></rect>
	<path id="Layer" fill-rule="evenodd" class="s1" d="m243.8 349.4c0 43.6-25.6 63.5-62.9 63.5-33.7 0-53.2-17.4-63.2-38.5l34.3-20.7c6.6 11.7 12.6 21.6 27.1 21.6 13.8 0 22.6-5.4 22.6-26.5v-143.1h42.1zm169.3 4.9c0-35.2-20.1-50.9-55.9-66.2l-10.5-4.5c-18.1-7.9-25.9-13-25.9-25.6 0-10.2 7.8-18 20.1-18 12.1 0 19.9 5.1 27.1 18l32.8-21c-13.8-24.4-33-33.7-59.8-33.7-37.5 0-61.6 24-61.6 55.6 0 34.3 20.1 50.6 50.5 63.5l10.5 4.5c19.3 8.5 30.7 13.6 30.7 28 0 12.1-11.2 20.8-28.6 20.8-20.7 0-32.5-10.9-41.5-25.6l-34.3 19.8c12.3 24.4 37.6 43 76.7 43 39.9 0 69.7-20.8 69.7-58.6z"/>
</svg>