<svg version="1.2" xmlns="http://www.w3.org/2000/svg" viewBox="0 0 800 800" width="64" height="64">
	<title>nodejs-logo-svg</title>
	<defs>
		<clipPath clipPathUnits="userSpaceOnUse" id="cp1">
			<path d="m0 0h800v800h-800z"/>
		</clipPath>
		<linearGradient id="g1" x1="344.9" y1="326.3" x2="294.2" y2="429.8" gradientUnits="userSpaceOnUse">
			<stop offset="0" stop-color="#687e67"/>
			<stop offset=".5" stop-color="#687e67"/>
			<stop offset="1" stop-color="#83a178"/>
		</linearGradient>
		<linearGradient id="g2" x1="313.5" y1="380.5" x2="456" y2="275.3" gradientUnits="userSpaceOnUse">
			<stop offset="0" stop-color="#687e67"/>
			<stop offset=".1" stop-color="#687e67"/>
			<stop offset=".7" stop-color="#9bb48f"/>
			<stop offset=".9" stop-color="#9bb48f"/>
			<stop offset="1" stop-color="#9bb48f"/>
		</linearGradient>
		<clipPath clipPathUnits="userSpaceOnUse" id="cp2">
			<path d="m322.1 301.23c1.17 0 2.34 0.31 3.39 0.91l56.17 32.42c2.1 1.21 3.39 3.45 3.39 5.88v64.89c0 2.42-1.29 4.66-3.39 5.87l-56.17 32.45c-2.1 1.21-4.68 1.21-6.78 0l-56.18-32.45c-2.1-1.21-3.39-3.45-3.39-5.87v-64.89c0-2.43 1.29-4.67 3.39-5.88l56.18-32.42c1.05-0.6 2.22-0.91 3.39-0.91z"/>
		</clipPath>
		<linearGradient id="g3" x1="257.1" y1="290.4" x2="387" y2="290.4" gradientUnits="userSpaceOnUse">
			<stop offset="0" stop-color="#9bb48f"/>
			<stop offset=".1" stop-color="#9bb48f"/>
			<stop offset=".3" stop-color="#9bb48f"/>
			<stop offset=".9" stop-color="#687e67"/>
			<stop offset="1" stop-color="#687e67"/>
		</linearGradient>
		<linearGradient id="g4" x1="257.1" y1="372.9" x2="387" y2="372.9" gradientUnits="userSpaceOnUse">
			<stop offset="0" stop-color="#9bb48f"/>
			<stop offset=".1" stop-color="#9bb48f"/>
			<stop offset=".3" stop-color="#9bb48f"/>
			<stop offset=".9" stop-color="#687e67"/>
			<stop offset="1" stop-color="#687e67"/>
		</linearGradient>
		<clipPath clipPathUnits="userSpaceOnUse" id="cp3">
			<path d="m322.1 301.23c1.17 0 2.34 0.31 3.39 0.91l56.17 32.42c2.1 1.21 3.39 3.45 3.39 5.88v64.89c0 2.42-1.29 4.66-3.39 5.87l-56.17 32.45c-2.1 1.21-4.68 1.21-6.78 0l-56.18-32.45c-2.1-1.21-3.39-3.45-3.39-5.87v-64.89c0-2.43 1.29-4.67 3.39-5.88l56.18-32.42c1.05-0.6 2.22-0.91 3.39-0.91z"/>
		</clipPath>
		<linearGradient id="g5" x1="257.1" y1="409.9" x2="387" y2="409.9" gradientUnits="userSpaceOnUse">
			<stop offset="0" stop-color="#9bb48f"/>
			<stop offset=".1" stop-color="#9bb48f"/>
			<stop offset=".3" stop-color="#9bb48f"/>
			<stop offset=".9" stop-color="#687e67"/>
			<stop offset="1" stop-color="#687e67"/>
		</linearGradient>
		<clipPath clipPathUnits="userSpaceOnUse" id="cp4">
			<path d="m322.1 301.23c1.17 0 2.34 0.31 3.39 0.91l56.17 32.42c2.1 1.21 3.39 3.45 3.39 5.88v64.89c0 2.42-1.29 4.66-3.39 5.87l-56.17 32.45c-2.1 1.21-4.68 1.21-6.78 0l-56.18-32.45c-2.1-1.21-3.39-3.45-3.39-5.87v-64.89c0-2.43 1.29-4.67 3.39-5.88l56.18-32.42c1.05-0.6 2.22-0.91 3.39-0.91z"/>
		</clipPath>
		<linearGradient id="g6" x1="257.1" y1="426.7" x2="387" y2="426.7" gradientUnits="userSpaceOnUse">
			<stop offset="0" stop-color="#9bb48f"/>
			<stop offset=".1" stop-color="#9bb48f"/>
			<stop offset=".3" stop-color="#9bb48f"/>
			<stop offset=".9" stop-color="#687e67"/>
			<stop offset="1" stop-color="#687e67"/>
		</linearGradient>
		<clipPath clipPathUnits="userSpaceOnUse" id="cp5">
			<path d="m322.1 301.23c1.17 0 2.34 0.31 3.39 0.91l56.17 32.42c2.1 1.21 3.39 3.45 3.39 5.88v64.89c0 2.42-1.29 4.66-3.39 5.87l-56.17 32.45c-2.1 1.21-4.68 1.21-6.78 0l-56.18-32.45c-2.1-1.21-3.39-3.45-3.39-5.87v-64.89c0-2.43 1.29-4.67 3.39-5.88l56.18-32.42c1.05-0.6 2.22-0.91 3.39-0.91z"/>
		</clipPath>
		<linearGradient id="g7" x1="406" y1="323.2" x2="325.9" y2="486.6" gradientUnits="userSpaceOnUse">
			<stop offset="0" stop-color="#687e67"/>
			<stop offset=".5" stop-color="#687e67"/>
			<stop offset="1" stop-color="#83a178"/>
		</linearGradient>
	</defs>
	<style>
		.s0 { fill: #080c15 } 
		.s1 { fill: #689f63 } 
		.s2 { fill: #ffffff } 
		.s3 { fill: url(#g1) } 
		.s4 { fill: url(#g2) } 
		.s5 { fill: url(#g3) } 
		.s6 { fill: url(#g4) } 
		.s7 { fill: url(#g5) } 
		.s8 { fill: url(#g6) } 
		.s9 { fill: url(#g7) } 
	</style>
	<rect id="Shape 1" class="s0" width="800" height="800" rx="116"></rect>
	<g id="g10">
		<g id="g12">
			<g id="Clip-Path: g14" clip-path="url(#cp1)">
				<g id="g14">
					<g id="g20">
						<path id="path22" class="s1" d="m395.9 579.9c-1.9 0-3.8-0.5-5.5-1.5l-17.8-10.5c-2.7-1.5-1.4-2-0.5-2.3 3.5-1.2 4.2-1.5 8-3.7 0.4-0.2 0.9-0.1 1.3 0.1l13.7 8.1c0.5 0.3 1.2 0.3 1.7 0l53.2-30.7c0.5-0.3 0.8-0.9 0.8-1.4v-61.5c0-0.6-0.3-1.2-0.8-1.5l-53.2-30.7c-0.5-0.3-1.2-0.3-1.7 0l-53.2 30.7c-0.5 0.3-0.8 0.9-0.8 1.5v61.5c0 0.5 0.3 1.1 0.8 1.4l14.6 8.4c7.9 4 12.7-0.7 12.7-5.4v-60.7c0-0.8 0.7-1.5 1.6-1.5h6.8c0.8 0 1.5 0.7 1.5 1.5v60.7c0 10.6-5.8 16.7-15.8 16.7-3.1 0-5.5 0-12.2-3.4l-14-8c-3.5-2-5.6-5.7-5.6-9.7v-61.5c0-4 2.1-7.7 5.6-9.7l53.3-30.8c3.3-1.9 7.8-1.9 11.1 0l53.3 30.8c3.5 2 5.6 5.7 5.6 9.7v61.5c0 4-2.1 7.7-5.6 9.7l-53.3 30.7c-1.7 1-3.6 1.5-5.6 1.5z"/>
					</g>
					<g id="g24">
						<path id="path26" class="s1" d="m412.4 537.6c-23.3 0-28.2-10.7-28.2-19.7 0-0.9 0.7-1.5 1.5-1.5h6.9c0.8 0 1.4 0.5 1.6 1.3 1 7 4.1 10.5 18.2 10.5 11.2 0 16-2.5 16-8.5 0-3.4-1.4-6-18.8-7.7-14.6-1.4-23.6-4.6-23.6-16.3 0-10.7 9.1-17.1 24.3-17.1 17 0 25.5 5.9 26.5 18.6 0.1 0.4-0.1 0.9-0.4 1.2-0.3 0.3-0.7 0.5-1.1 0.5h-6.9c-0.7 0-1.4-0.5-1.5-1.2-1.7-7.4-5.7-9.8-16.6-9.8-12.3 0-13.7 4.3-13.7 7.5 0 3.9 1.7 5 18.2 7.2 16.4 2.2 24.1 5.2 24.1 16.7 0 11.6-9.6 18.3-26.5 18.3z"/>
					</g>
					<g id="g28">
						<path id="path30" fill-rule="evenodd" class="s1" d="m489.2 473.1c0 5.7-4.6 10.3-10.3 10.3-5.6 0-10.2-4.6-10.2-10.3 0-5.8 4.7-10.3 10.2-10.3 5.6 0 10.3 4.5 10.3 10.3zm-18.9 0c0 4.8 3.9 8.6 8.6 8.6 4.8 0 8.6-3.9 8.6-8.6 0-4.8-3.9-8.6-8.6-8.6-4.7 0-8.6 3.7-8.6 8.6zm4.8-5.8h3.9c1.4 0 4.1 0 4.1 3.1 0 2.1-1.4 2.5-2.2 2.8 1.6 0.1 1.7 1.2 1.9 2.6 0.1 0.9 0.3 2.5 0.6 3.1h-2.5c0-0.6-0.4-3.5-0.4-3.7-0.2-0.6-0.4-1-1.2-1h-2v4.7h-2.2zm2.2 5h1.7c1.5 0 1.8-1 1.8-1.6 0-1.6-1.1-1.6-1.7-1.6h-1.8z"/>
					</g>
					<g id="g32">
						<path id="path34" fill-rule="evenodd" class="s2" d="m230.9 426.9c0 1.3-0.7 2.4-1.7 3-1.1 0.6-2.4 0.6-3.4 0l-33.6-19.2c-2.1-1.3-3.4-3.5-3.4-6v-40.8c0-2.5-1.3-4.7-3.4-5.9l-14.3-8.3c-1-0.6-2.2-0.9-3.4-0.9-1.2 0-2.3 0.3-3.4 0.9l-14.3 8.3c-2.1 1.2-3.4 3.4-3.4 5.9v40.8c0 2.5-1.3 4.7-3.4 6l-33.6 19.2c-1 0.6-2.3 0.6-3.4 0-1-0.6-1.7-1.7-1.7-3l-0.1-87.5c0-2.4 1.3-4.7 3.4-5.9l56.5-32.5c1-0.6 2-0.9 3.1-0.9h0.6c1.1 0 2.2 0.3 3.1 0.9l56.5 32.5c2.1 1.2 3.4 3.5 3.4 5.9z"/>
					</g>
					<g id="g36">
						<path id="path38" fill-rule="evenodd" class="s2" d="m536.3 237.9c2.2 1.2 3.5 3.5 3.5 5.9v162.6c0 2.5-1.3 4.7-3.4 5.9l-56.5 32.7c-2.1 1.2-4.7 1.2-6.8 0l-56.5-32.7c-2.1-1.2-3.4-3.4-3.4-5.9v-65.2c0-2.4 1.3-4.7 3.4-5.9l56.5-32.6c2.1-1.2 4.7-1.2 6.8 0l14.2 8.1c0.7 0.5 1.6 0.5 2.4 0 0.7-0.4 1.1-1.2 1.1-2v-86.7c0-1.2 0.7-2.3 1.7-2.9 1.1-0.7 2.4-0.7 3.4-0.1zm-38.8 124.7c0-0.6-0.4-1.1-0.9-1.4l-19.4-11.2c-0.5-0.4-1.2-0.4-1.7 0l-19.4 11.2c-0.5 0.3-0.8 0.8-0.8 1.4v22.4c0 0.6 0.3 1.2 0.8 1.5l19.4 11.2c0.5 0.3 1.2 0.3 1.7 0l19.4-11.2c0.5-0.3 0.9-0.9 0.9-1.5z"/>
					</g>
					<g id="g40">
						<path id="path42" fill-rule="evenodd" class="s2" d="m657 381.7c-1 0.6-2.3 0.6-3.4 0-1.1-0.6-1.7-1.8-1.7-3v-16.1c0-1.2-0.7-2.3-1.7-2.9l-17.7-10.2c-1.1-0.6-2.4-0.6-3.4 0l-17.7 10.2c-1.1 0.6-1.7 1.7-1.7 2.9v20.5c0 1.2 0.6 2.3 1.7 2.9l56.8 32.7c1.1 0.6 1.8 1.7 1.7 2.9 0 1.3-0.6 2.4-1.7 3l-34 18.9c-2 1.1-4.6 1.1-6.6-0.1l-56.2-32c-2.1-1.2-3.4-3.4-3.4-5.9v-65.2c0-2.4 1.3-4.7 3.4-5.9l56.5-32.6c2.1-1.2 4.7-1.2 6.8 0l56.1 32.6c2.1 1.2 3.4 3.5 3.4 5.9v15.8c0 2.4-1.3 4.7-3.4 5.9z"/>
					</g>
					<g id="g44">
						<path id="path46" fill-rule="evenodd" class="s1" d="m630.5 359c0.4-0.3 0.9-0.3 1.3 0l10.8 6.2c0.4 0.2 0.7 0.7 0.7 1.1v12.6c0 0.4-0.3 0.9-0.7 1.1l-10.8 6.2c-0.4 0.3-0.9 0.3-1.3 0l-10.9-6.2c-0.4-0.2-0.6-0.7-0.6-1.1v-12.6c0-0.4 0.2-0.9 0.6-1.1z"/>
					</g>
				</g>
			</g>
		</g>
		<g id="g48">
			<g id="g50">
				<g id="g56">
					<g id="g58">
						<path id="path68" class="s3" d="m322.1 301.2c1.2 0 2.3 0.3 3.4 0.9l56.2 32.5c2.1 1.2 3.4 3.4 3.4 5.8v64.9c0 2.5-1.3 4.7-3.4 5.9l-56.2 32.4c-2.1 1.3-4.7 1.3-6.8 0l-56.2-32.4c-2.1-1.2-3.4-3.4-3.4-5.9v-64.9c0-2.4 1.3-4.6 3.4-5.8l56.2-32.5c1.1-0.6 2.2-0.9 3.4-0.9z"/>
					</g>
				</g>
			</g>
		</g>
		<g id="g70">
			<g id="g72">
				<g id="g78">
					<g id="g80">
						<path id="path94" class="s4" d="m323.7 301.4q0.9 0.3 1.7 0.7l19.5 11.2 36.8 21.3q0.8 0.5 1.5 1.2l-59.2 108.5q-0.7 0.2-1.3 0.2c-1.4 0.1-2.8-0.2-4-0.9l-8-4.6-48.2-27.8q-1.2-0.7-2-1.8z"/>
					</g>
				</g>
			</g>
		</g>
		<g id="g96">
			<g id="Clip-Path: g98" clip-path="url(#cp2)">
				<g id="g98">
					<g id="g104">
						<g id="g106">
							<g id="g112">
								<g id="g114">
									<path id="path128" class="s5" d="m317.1 290.7h-1l0.7-0.5z"/>
								</g>
							</g>
						</g>
					</g>
				</g>
			</g>
		</g>
		<g id="g130">
			<g id="g132">
				<g id="g138">
					<g id="g140">
						<path id="path154" class="s6" d="m322 301.2q0.7 0 1.4 0.2l61.5 105.2c-0.3 1.9-1.5 3.6-3.2 4.6l-56.2 32.4q-1.2 0.7-2.4 0.9l-60.4-110 56-32.4q1.3-0.7 2.7-0.8 0.3-0.1 0.6-0.1z"/>
					</g>
				</g>
			</g>
		</g>
		<g id="g156">
			<g id="Clip-Path: g158" clip-path="url(#cp3)">
				<g id="g158">
					<g id="g164">
						<g id="g166">
							<g id="g172">
								<g id="g174">
									<path id="path188" class="s7" d="m386.7 410.4v-0.9l0.3 0.7z"/>
								</g>
							</g>
						</g>
					</g>
				</g>
			</g>
		</g>
		<g id="g190">
			<g id="Clip-Path: g192" clip-path="url(#cp4)">
				<g id="g192">
					<g id="g198">
						<g id="g200">
							<g id="g206">
								<g id="g208">
									<path id="path222" class="s8" d="m385.1 406.9l1.6 2.6v0.9l-62.5 36.1-1.1-2q1.3-0.2 2.5-0.9l56.2-32.4c1.6-0.9 2.9-2.5 3.3-4.3z"/>
								</g>
							</g>
						</g>
					</g>
				</g>
			</g>
		</g>
		<g id="g224">
			<g id="Clip-Path: g226" clip-path="url(#cp5)">
				<g id="g226">
					<g id="g232">
						<g id="g234">
							<g id="g240">
								<g id="g242">
									<path id="path252" class="s9" d="m385.1 406.9l1.6 2.6v0.9l-62.5 36.1-1.1-2q1.3-0.2 2.5-0.9l56.2-32.4c1.6-0.9 2.9-2.5 3.3-4.3z"/>
								</g>
							</g>
						</g>
					</g>
				</g>
			</g>
		</g>
	</g>
</svg>