<svg version="1.2" xmlns="http://www.w3.org/2000/svg" viewBox="0 0 600 600" width="64" height="64">
	<title>python-logo-svg</title>
	<defs>
		<linearGradient id="g1" x1="118.4" y1="118.4" x2="336.8" y2="337.6" gradientUnits="userSpaceOnUse">
			<stop offset="0" stop-color="#387eb8"/>
			<stop offset="1" stop-color="#366994"/>
		</linearGradient>
		<linearGradient id="g2" x1="252.8" y1="258" x2="487.2" y2="482.4" gradientUnits="userSpaceOnUse">
			<stop offset="0" stop-color="#ffe052"/>
			<stop offset="1" stop-color="#ffc331"/>
		</linearGradient>
	</defs>
	<style>
		.s0 { fill: #0e2731 } 
		.s1 { fill: url(#g1) } 
		.s2 { fill: url(#g2) } 
	</style>
	<rect id="Shape 1" class="s0" width="600" height="600" rx="87"></rect>
	<g id="layer1">
		<g id="g1894">
			<path id="path8615" fill-rule="evenodd" class="s1" d="m403.2 138.8c0 0 0 38 0 96.8 0 58.4-59.6 57.6-59.6 57.6 0 0-42.4 0-106 0-63.6 0-61.6 62.4-61.6 62.4v52.8h-37.2c0 0-62.8 4-62.8-109.2 0-113.2 71.6-105.2 71.6-105.2h149.6v-15.2h-106.8l-0.4-50c0 0-6.8-48.8 105.2-48.8 117.2 0 108 58.8 108 58.8zm-147.6-5.6c0-10.6-8.6-19.2-19.2-19.2-10.6 0-19.2 8.6-19.2 19.2 0 10.6 8.6 19.2 19.2 19.2 10.6 0 19.2-8.6 19.2-19.2z"/>
			<path id="path8620" fill-rule="evenodd" class="s2" d="m190.4 460.8c0 0 0-38.4 0-96.8 0-58.8 59.6-57.6 59.6-57.6 0 0 42.4 0 106 0 63.6 0 61.6-62.8 61.6-62.8v-52.4h37.6c0 0 62.4-4 62.4 109.2 0 112.8-71.6 104.8-71.6 104.8h-149.6v15.2h107.2v50.4c0 0 6.8 48.4-105.2 48.4-117.2 0-108-58.4-108-58.4zm186.4 5.6c0-10.6-8.7-19.2-19.4-19.2-10.7 0-19.4 8.6-19.4 19.2 0 10.6 8.7 19.2 19.4 19.2 10.7 0 19.4-8.6 19.4-19.2z"/>
		</g>
	</g>
</svg>