<svg version="1.2" xmlns="http://www.w3.org/2000/svg" viewBox="0 0 750 750" width="64" height="64">
	<title>tailwindcss-logo-svg</title>
	<style>
		.s0 { fill: #0f172a } 
		.s1 { fill: #38bdf8 } 
	</style>
	<g id="Layer">
		<rect id="Shape 1" class="s0" width="750" height="750" rx="109"></rect>
		<path id="Layer" fill-rule="evenodd" class="s1" d="m494 268c16 16 31 31 51 36q54 14 95-40-27 108-135 108c-67 0-98-31-124-58-16-16-31-31-51-37q-54-13-95 41 27-108 135-108c67 0 98 31 124 58zm-259 104q-108 0-135 108 40-54 94-40c21 5 36 20 52 36 26 27 57 58 124 58q108 0 135-108-41 54-95 40c-20-5-35-20-51-36-26-27-57-58-124-58z"/>
	</g>
</svg>