<svg version="1.2" xmlns="http://www.w3.org/2000/svg" viewBox="0 0 75 75" width="64" height="64">
  <defs>
    <clipPath clipPathUnits="userSpaceOnUse" id="cp1">
      <path d="m10 21h54v32.4h-54z"/>
    </clipPath>
  </defs>
  <style>.a{fill:#38bdf8}</style>
  <g clip-path="url(#cp1)">
    <path fill-rule="evenodd" class="a" d="m49.4 26.8c1.6 1.6 3.1 3.1 5.1 3.6q5.4 1.4 9.5-4-2.7 10.8-13.5 10.8c-6.7 0-9.8-3.1-12.4-5.8-1.6-1.6-3.1-3.1-5.1-3.7q-5.4-1.3-9.5 4.1 2.7-10.8 13.5-10.8c6.7 0 9.8 3.1 12.4 5.8zm-25.9 10.4q-10.8 0-13.5 10.8 4-5.4 9.4-4c2.1 0.5 3.6 2 5.2 3.6 2.6 2.7 5.7 5.8 12.4 5.8q10.8 0 13.5-10.8-4.1 5.4-9.5 4c-2-0.5-3.5-2-5.1-3.6-2.6-2.7-5.7-5.8-12.4-5.8z"/>
  </g>
</svg>
