<svg version="1.2" xmlns="http://www.w3.org/2000/svg" viewBox="0 0 120 120" width="64" height="64">
  <style>.a{fill:#4c4c4c}.b{fill:#808080}</style>
  <path class="a" d="m87.3 70.6v-17.7c0-0.6-0.8-1-1.3-0.7l-18.2 10.5c-0.6 0.3-0.9 0.9-0.9 1.5v21c0 0.6 0.8 1 1.3 0.7l15.3-8.8 15 8.6-39 22.5-39-22.5 15-8.6 15.3 8.8c0.6 0.4 1.3-0.1 1.3-0.7v-21c0-0.6-0.4-1.2-0.9-1.5l-18.2-10.5c-0.6-0.4-1.3 0.1-1.3 0.7v17.7l-15 8.6v-0.2 0.2-45.1l39-22.5v17.3l-15.3 8.8c-0.6 0.3-0.6 1.2 0 1.5l18.2 10.6c0.5 0.3 1.2 0.3 1.7 0l18.2-10.5c0.6-0.3 0.6-1.2 0-1.5l-15.3-8.8v-17.3l39 22.5v45z"/>
  <path  d="m59.4 58.9l42.8-24.7v45.1l-15-8.6v-17.7c0-0.6-0.8-1-1.3-0.7l-18.2 10.5c-0.6 0.3-0.9 0.9-0.9 1.5v21c0 0.6 0.8 1 1.3 0.7l15.3-8.8 15 8.6-39 22.5z"/>
  <path class="b" d="m102.3 34.1l-42.8 24.7-42.8-24.7 39-22.5v17.3l-15.3 8.8c-0.6 0.3-0.6 1.2 0 1.5l18.1 10.5c0.5 0.3 1.2 0.3 1.7 0l18.2-10.5c0.6-0.3 0.6-1.2 0-1.5l-15.3-8.8v-17.3z"/>
  <path class="a" d="m52 85.3v-21c0-0.6-0.4-1.2-0.9-1.5l-18.2-10.5c-0.6-0.4-1.3 0.1-1.3 0.7v17.7l-15 8.6v-0.2 0.2-45.1l42.7 24.6v49.4l-39-22.5 15-8.6 15.3 8.8c0.6 0.3 1.3-0.1 1.4-0.6z"/>
</svg>
