<svg version="1.2" xmlns="http://www.w3.org/2000/svg" viewBox="0 0 980 980" width="980" height="980">
	<title>U_Logo_White_RGB-svg</title>
	<style>
		.s0 { fill: #2c2926 } 
		.s1 { fill: #cccccc } 
		.s2 { fill: #a6a6a6 } 
		.s3 { fill: #ffffff } 
	</style>
	<g id="Layer">
		<rect id="Shape 1" class="s0" width="980" height="980" rx="142"></rect>
		<path id="Layer" class="s1" d="m704.5 574.4v-136.3c0-4.7-6.2-7.7-10-5.4l-140.2 80.8c-4.6 2.3-6.9 7-6.9 11.6v161.7c0 4.6 6.1 7.7 10 5.4l117.8-67.8 115.5 66.3-300.3 173.2-300.4-173.2 115.6-66.3 117.8 67.8c4.6 3.1 10-0.8 10-5.4v-161.7c0-4.6-3.1-9.3-6.9-11.6l-140.2-80.8c-4.6-3.1-10 0.7-10 5.4v136.3l-115.5 66.2v-1.5 1.5-347.3l300.3-173.3v133.2l-117.8 67.8c-4.6 2.3-4.6 9.2 0 11.6l140.2 81.6c3.8 2.3 9.2 2.3 13 0l140.2-80.9c4.6-2.3 4.6-9.2 0-11.5l-117.8-67.8v-133.2l300.3 173.2v346.6z"/>
		<path id="Layer" class="s2" d="m489.6 484.3l329.6-190.3v347.4l-115.5-66.3v-136.3c0-4.6-6.2-7.7-10-5.4l-140.2 80.9c-4.6 2.3-6.9 6.9-6.9 11.6v161.7c0 4.6 6.2 7.7 10 5.4l117.8-67.8 115.6 66.2-300.4 173.3z"/>
		<path id="Layer" class="s3" d="m820 293.3l-329.6 190.2-329.6-190.2 300.3-173.3v133.2l-117.8 67.8c-4.6 2.3-4.6 9.2 0 11.6l139.4 80.8c3.8 2.3 9.2 2.3 13.1 0l140.1-80.8c4.7-2.4 4.7-9.3 0-11.6l-117.8-67.8v-133.2z"/>
		<path id="Layer" class="s1" d="m432.6 687.6v-161.7c0-4.7-3.1-9.3-6.9-11.6l-140.2-80.9c-4.6-3-10 0.8-10 5.4v136.3l-115.5 66.3v-1.6 1.6-347.4l328.8 189.5v380.4l-300.3-173.2 115.5-66.3 117.8 67.8c4.7 2.3 10.1-0.8 10.8-4.6z"/>
	</g>
</svg>